<svg viewBox="0 0 24 24" aria-hidden="true">
  <g stroke="none" stroke-width="1" fill="none" fill-rule="evenodd">
    <path fill="currentColor" d="M2,5 C2,3.89543 2.89543,3 4,3 L9.51938,3 C10.1269,3 10.7016,3.27618 11.0811,3.75061 L12.4806,5.5 L20,5.5 C21.1046,5.5 22,6.39543 22,7.5 L22,19 C22,20.1046 21.1046,21 20,21 L4,21 C2.89543,21 2,20.1046 2,19 L2,5 Z M12,9 C12.5523,9 13,9.44772 13,10 L13,12 L15,12 C15.5523,12 16,12.4477 16,13 C16,13.5523 15.5523,14 15,14 L13,14 L13,16 C13,16.5523 12.5523,17 12,17 C11.4477,17 11,16.5523 11,16 L11,14 L9,14 C8.44772,14 8,13.5523 8,13 C8,12.4477 8.44772,12 9,12 L11,12 L11,10 C11,9.44772 11.4477,9 12,9 Z"></path>
  </g>
</svg>
