<svg xmlns="http://www.w3.org/2000/svg" viewBox="0 0 24 24" aria-hidden="true">
  <g stroke="none" stroke-width="1" fill="none" fill-rule="evenodd">
    <path fill="currentColor" d="M12,17 C13.1046,17 14,17.8954 14,19 C14,20.1046 13.1046,21 12,21 C10.8954,21 10,20.1046 10,19 C10,17.8954 10.8954,17 12,17 Z M12,10 C13.1046,10 14,10.8954 14,12 C14,13.1046 13.1046,14 12,14 C10.8954,14 10,13.1046 10,12 C10,10.8954 10.8954,10 12,10 Z M12,3 C13.1046,3 14,3.89543 14,5 C14,6.10457 13.1046,7 12,7 C10.8954,7 10,6.10457 10,5 C10,3.89543 10.8954,3 12,3 Z"></path>
  </g>
</svg>
