<svg viewBox="0 0 24 24" aria-hidden="true">
  <g stroke="none" stroke-width="1" fill="none" fill-rule="evenodd">
    <path fill="currentColor" d="M12,2 C17.5228,2 22,6.47715 22,12 C22,17.5228 17.5228,22 12,22 C6.47715,22 2,17.5228 2,12 C2,6.47715 6.47715,2 12,2 Z M11.99,10 L11,10 C10.4477,10 10,10.4477 10,11 C10,11.51285 10.386027,11.9355092 10.8833761,11.9932725 L11,12 L11,16.99 C11,17.5106133 11.3938293,17.9392373 11.8999333,17.9940734 L12.01,18 L12.5,18 C13.0523,18 13.5,17.5523 13.5,17 C13.5,16.6710222 13.3411062,16.3791012 13.0958694,16.1968582 L13,16.1338 L13,11.01 C13,10.4893867 12.6060836,10.0607627 12.1000493,10.0059266 L11.99,10 Z M12,7 C11.4477,7 11,7.44772 11,8 C11,8.55228 11.4477,9 12,9 C12.5523,9 13,8.55228 13,8 C13,7.44772 12.5523,7 12,7 Z"></path>
  </g>
</svg>
