<svg xmlns="http://www.w3.org/2000/svg" width="26" height="26" viewBox="-0.5 -0.5 512 513">
  <g>
    <ellipse cx="256" cy="256" rx="248" ry="248" fill="#581c87" stroke="none"/>
    <rect x="254" y="32" width="4" height="448" rx="2" ry="2" fill="#7e22ce" stroke="none" transform="rotate(90,256,256)"/>
    <rect x="200" y="72" width="16" height="368" rx="8" ry="8" fill="#7e22ce" stroke="none"/>
    <rect x="56" y="168" width="16" height="176" rx="8" ry="8" fill="#7e22ce" stroke="none"/>
    <rect x="296" y="224" width="16" height="64" rx="8" ry="8" fill="#7e22ce" stroke="none"/>
    <rect x="392" y="112" width="16" height="280" rx="8" ry="8" fill="#7e22ce" stroke="none"/>
    <rect x="440" y="168" width="16" height="176" rx="8" ry="8" fill="#7e22ce" stroke="none"/>
    <rect x="104" y="144" width="16" height="224" rx="8" ry="8" fill="#7e22ce" stroke="none"/>
    <rect x="96" y="344" width="88" height="88" rx="44" ry="44" fill="#ffffff" stroke="none"/>
    <rect x="136" y="96" width="48" height="320" rx="24" ry="24" fill="#ffffff" stroke="none"/>
    <path d="M 160 120 L 256 207.36" fill="none" stroke="#ffffff" stroke-width="48" stroke-miterlimit="10" pointer-events="stroke"/>
    <rect x="232" y="192" width="48" height="128" rx="24" ry="24" fill="#ffffff" stroke="none"/>
    <path d="M 256 208 L 352 96" fill="none" stroke="#ffffff" stroke-width="48" stroke-miterlimit="10" pointer-events="stroke"/>
    <rect x="288" y="320" width="88" height="88" rx="44" ry="44" fill="#ffffff" stroke="none"/>
    <rect x="328" y="72" width="48" height="320" rx="24" ry="24" fill="#ffffff" stroke="none"/>
  </g>
</svg>
