<svg viewBox="0 0 24 24" aria-hidden="true">
  <g stroke="none" stroke-width="1" fill="none" fill-rule="evenodd">
    <path fill="currentColor" d="M18,4 C18,3.44772 17.5523,3 17,3 C16.4477,3 16,3.44772 16,4 L16,5 L4,5 C3.44772,5 3,5.44772 3,6 C3,6.55228 3.44772,7 4,7 L16,7 L16,8 C16,8.55228 16.4477,9 17,9 C17.5523,9 18,8.55228 18,8 L18,7 L20,7 C20.5523,7 21,6.55228 21,6 C21,5.44772 20.5523,5 20,5 L18,5 L18,4 Z M4,11 C3.44772,11 3,11.4477 3,12 C3,12.5523 3.44772,13 4,13 L6,13 L6,14 C6,14.5523 6.44772,15 7,15 C7.55228,15 8,14.5523 8,14 L8,13 L20,13 C20.5523,13 21,12.5523 21,12 C21,11.4477 20.5523,11 20,11 L8,11 L8,10 C8,9.44772 7.55228,9 7,9 C6.44772,9 6,9.44772 6,10 L6,11 L4,11 Z M3,18 C3,17.4477 3.44772,17 4,17 L16,17 L16,16 C16,15.4477 16.4477,15 17,15 C17.5523,15 18,15.4477 18,16 L18,17 L20,17 C20.5523,17 21,17.4477 21,18 C21,18.5523 20.5523,19 20,19 L18,19 L18,20 C18,20.5523 17.5523,21 17,21 C16.4477,21 16,20.5523 16,20 L16,19 L4,19 C3.44772,19 3,18.5523 3,18 Z"></path>
  </g>
</svg>
